<svg width="46" height="49" viewBox="0 0 46 49" fill="none" xmlns="http://www.w3.org/2000/svg">
<rect opacity="0.15" x="0.85083" y="0.749939" width="43.7458" height="46.6225" rx="18.75" stroke="#0A142F" stroke-width="1.5"/>
<path fill-rule="evenodd" clip-rule="evenodd" d="M22.506 20.8852L22.5387 21.4723L21.9938 21.4004C20.0105 21.1248 18.2778 20.1903 16.8066 18.6208L16.0874 17.842L15.9021 18.4171C15.5098 19.6991 15.7604 21.053 16.5777 21.9635C17.0136 22.4667 16.9156 22.5386 16.1636 22.2391C15.9021 22.1432 15.6733 22.0713 15.6515 22.1073C15.5752 22.1912 15.8367 23.2814 16.0438 23.7127C16.3271 24.3118 16.9047 24.8989 17.5367 25.2463L18.0707 25.5219L17.4387 25.5339C16.8284 25.5339 16.8066 25.5458 16.872 25.7974C17.0899 26.5762 17.9508 27.4029 18.9098 27.7623L19.5855 28.0139L18.997 28.3973C18.1252 28.9485 17.1008 29.26 16.0765 29.2839C15.5861 29.2959 15.1829 29.3438 15.1829 29.3798C15.1829 29.4996 16.5124 30.1705 17.2861 30.4341C19.6073 31.2129 22.3643 30.8774 24.4349 29.5475C25.906 28.601 27.3772 26.72 28.0637 24.8989C28.4343 23.9284 28.8048 22.1552 28.8048 21.3046C28.8048 20.7534 28.8375 20.6815 29.4477 20.0226C29.8073 19.6392 30.1452 19.2199 30.2106 19.1C30.3195 18.8724 30.3086 18.8724 29.7529 19.0761C28.8266 19.4355 28.6958 19.3876 29.1535 18.8484C29.4913 18.4651 29.8945 17.7702 29.8945 17.5665C29.8945 17.5305 29.7311 17.5904 29.5458 17.6983C29.3497 17.8181 28.9137 17.9978 28.5868 18.1056L27.9984 18.3093L27.4644 17.9139C27.1701 17.6983 26.756 17.4586 26.5381 17.3868C25.9823 17.219 25.1323 17.243 24.631 17.4347C23.2688 17.9738 22.4079 19.3636 22.506 20.8852Z" fill="#0A142F"/>
</svg>
