<svg width="21" height="20" viewBox="0 0 21 20" fill="none" xmlns="http://www.w3.org/2000/svg">
<path d="M1.11254 3.25755L6.98754 1.2988H7.05629C7.10201 1.2942 7.14807 1.2942 7.19379 1.2988H7.61379L13.1763 3.2088L18.7375 1.2988C18.8848 1.25027 19.0415 1.23743 19.1947 1.26133C19.348 1.28524 19.4933 1.34521 19.6188 1.4363C19.7454 1.52651 19.8487 1.64554 19.9202 1.78355C19.9917 1.92157 20.0294 2.07461 20.03 2.23005V15.9375C20.0306 16.1429 19.9665 16.3431 19.8469 16.51C19.7274 16.6769 19.5584 16.802 19.3638 16.8675L13.4888 18.8263C13.2918 18.8904 13.0795 18.8904 12.8825 18.8263L7.30129 16.9663L1.73879 18.875C1.63509 18.889 1.52999 18.889 1.42629 18.875C1.22125 18.8781 1.02107 18.8125 0.857542 18.6888C0.731128 18.5987 0.627921 18.4799 0.556422 18.3421C0.484923 18.2043 0.447177 18.0515 0.446292 17.8963V4.18755C0.445772 3.98224 0.509827 3.78197 0.629393 3.61507C0.748959 3.44817 0.917981 3.3231 1.11254 3.25755ZM14.155 16.535L18.0713 15.2325V3.59005L14.155 4.89255V16.535ZM8.28004 15.2325L12.1963 16.535V4.89255L8.28004 3.59005V15.2325ZM2.40504 16.535L6.32129 15.2325V3.59005L2.40504 4.89255V16.535Z" fill="black"/>
</svg>
