<svg width="20" height="18" viewBox="0 0 20 18" fill="none" xmlns="http://www.w3.org/2000/svg">
<path fill-rule="evenodd" clip-rule="evenodd" d="M8.59671 0.98915C7.70126 0.33266 6.693 0 5.59717 0C4.05252 0 2.63193 0.62561 1.59662 1.76153C0.57352 2.88418 0.0100098 4.41788 0.0100098 6.08032C0.0100098 7.7914 0.64035 9.3576 1.99365 11.0096C3.20428 12.4873 4.94424 13.9873 6.95917 15.7243L6.96268 15.7274C7.64993 16.3198 8.42891 16.9914 9.23681 17.7061C9.45081 17.8957 9.72531 18 10.01 18C10.2946 18 10.5692 17.8957 10.783 17.7064C11.5928 16.99 12.373 16.3173 13.0615 15.724C15.0759 13.9873 16.8159 12.4872 18.0265 11.0094C19.3798 9.3576 20.01 7.7914 20.01 6.08032C20.01 4.41788 19.4466 2.88418 18.4235 1.76153C17.3882 0.62561 15.9675 0 14.423 0C13.3271 0 12.3189 0.33268 11.4233 0.98919C11.1603 1.18202 10.9083 1.40184 10.6716 1.64502C10.4366 1.88647 10.2157 2.15164 10.01 2.43932C9.80431 2.15163 9.58351 1.88645 9.34841 1.645C9.11171 1.40179 8.85971 1.18194 8.59671 0.98915ZM7.50703 2.6724C6.91929 2.21262 6.29362 2 5.59717 2C4.61206 2 3.7291 2.39091 3.07485 3.10869C2.42032 3.82694 2.01001 4.8653 2.01001 6.08032C2.01001 7.2238 2.40569 8.3566 3.54073 9.7421C4.61757 11.0565 6.20537 12.4339 8.26501 14.2095L8.27271 14.2161L8.27621 14.2192C8.80491 14.6749 9.39361 15.1825 10.0101 15.7224C10.631 15.1786 11.2239 14.6674 11.7558 14.209C13.815 12.4337 15.4026 11.0564 16.4794 9.742C17.6143 8.3568 18.01 7.2239 18.01 6.08032C18.01 4.86517 17.5998 3.82685 16.9453 3.10869C16.2911 2.39093 15.408 2 14.423 2C13.7265 2 13.1007 2.21273 12.5129 2.6726C12.2053 2.91318 11.9104 3.22018 11.6368 3.60273L10.0097 5.87795L8.38301 3.60242C8.10991 3.22038 7.8147 2.91319 7.50703 2.6724Z" fill="black"/>
</svg>
