<svg width="46" height="49" viewBox="0 0 46 49" fill="none" xmlns="http://www.w3.org/2000/svg">
<rect opacity="0.15" x="1.36279" y="0.749939" width="43.7458" height="46.6225" rx="18.75" stroke="#0A142F" stroke-width="1.5"/>
<path fill-rule="evenodd" clip-rule="evenodd" d="M19.1755 32.0816H15.6951V20.9764H19.1755V32.0816Z" fill="#0A142F"/>
<path fill-rule="evenodd" clip-rule="evenodd" d="M17.4249 18.5085H17.4052C16.3665 18.5085 15.6951 17.6855 15.6951 16.657C15.6951 15.6067 16.387 14.8068 17.4453 14.8068C18.5037 14.8068 19.1554 15.6067 19.1755 16.657C19.1755 17.6855 18.5037 18.5085 17.4249 18.5085Z" fill="#0A142F"/>
<path fill-rule="evenodd" clip-rule="evenodd" d="M31.9371 32.0813H28.517V26.2765C28.517 24.8185 28.0221 23.8235 26.784 23.8235C25.8391 23.8235 25.2763 24.4943 25.0291 25.1421C24.9386 25.3743 24.9164 25.6978 24.9164 26.022V32.0816H21.4958C21.4958 32.0816 21.5409 22.2496 21.4958 21.2315H24.9164V22.7683C25.3704 22.0296 26.1834 20.9764 27.9993 20.9764C30.2499 20.9764 31.9372 22.5275 31.9372 25.8602L31.9371 32.0813Z" fill="#0A142F"/>
</svg>
